<?xml version="1.0" encoding="utf-8"?>
<!-- Generator: Adobe Illustrator 21.0.0, SVG Export Plug-In . SVG Version: 6.00 Build 0)  -->
<svg version="1.1" id="Layer_1" xmlns="http://www.w3.org/2000/svg" xmlns:xlink="http://www.w3.org/1999/xlink" x="0px" y="0px"
	 viewBox="0 0 33 33" style="enable-background:new 0 0 33 33;" xml:space="preserve">
<style type="text/css">
	.st0{fill:#4B4B4B;}
</style>
<g>
	<path class="st0" d="M32.6,27.9l-6.6-6.6l4.7-2.7c0.4-0.2,0.6-0.6,0.6-1s-0.3-0.8-0.7-0.9L9.7,8.3C9.3,8.2,8.9,8.3,8.6,8.6
		C8.2,8.9,8.1,9.4,8.3,9.8l8.3,20.9c0.2,0.4,0.5,0.7,0.9,0.7c0.4,0,0.8-0.2,1-0.6l2.7-4.7l6.6,6.6c0.2,0.2,0.5,0.3,0.8,0.3
		s0.6-0.1,0.8-0.3l3.2-3.2C33.1,29,33.1,28.3,32.6,27.9z"/>
	<path class="st0" d="M4.8,3.3c-0.4-0.4-1.1-0.4-1.6,0s-0.4,1.1,0,1.6l2.5,2.5C6,7.5,6.2,7.6,6.5,7.6s0.6-0.1,0.8-0.3
		c0.4-0.4,0.4-1.1,0-1.6L4.8,3.3z"/>
	<path class="st0" d="M5.7,10.9c0-0.6-0.5-1.1-1.1-1.1H1.1C0.5,9.8,0,10.3,0,10.9C0,11.5,0.5,12,1.1,12h3.5
		C5.2,12,5.7,11.5,5.7,10.9z"/>
	<path class="st0" d="M5.2,14.3l-2.4,2.5c-0.4,0.4-0.4,1.1,0,1.6c0.2,0.2,0.5,0.3,0.8,0.3s0.6-0.1,0.8-0.3l2.5-2.5
		c0.4-0.4,0.4-1.1,0-1.6S5.6,13.9,5.2,14.3z"/>
	<path class="st0" d="M10.9,5.7c0.6,0,1.1-0.5,1.1-1.1V1.1C12,0.5,11.5,0,10.9,0S9.8,0.5,9.8,1.1v3.5C9.8,5.2,10.3,5.7,10.9,5.7z"/>
	<path class="st0" d="M15.1,7.1c0.3,0,0.6-0.1,0.8-0.3l2.5-2.5c0.4-0.4,0.4-1.1,0-1.6s-1.1-0.4-1.6,0l-2.5,2.5
		c-0.4,0.4-0.4,1.1,0,1.6C14.5,7,14.8,7.1,15.1,7.1z"/>
</g>
</svg>
