<svg id="Layer_1" data-name="Layer 1" xmlns="http://www.w3.org/2000/svg" viewBox="0 0 219.5 274.66"><defs><style>.cls-1{fill:#ed7caf;}.cls-2{fill:#ee7eb0;}.cls-3{fill:#b4b5b6;}.cls-4{fill:#944284;}</style></defs><title>floating-pro-icon</title><path class="cls-1" d="M18.2,45.69c.14-11,6.91-18,18-18.32,8.62-.21,17.24-.18,25.86-.25l94.69,0c7.81.08,15.62.21,23.44.24,13.61,0,20,6.29,20,19.73,0,1.66,0,3.33,0,5,0,29-.36,58,.13,87,.17,9.71-6.55,18.9-18.58,18.92q-72.24.1-144.47,0c-12.63,0-19.07-7.17-19.07-19.86q0-39.74,0-79.48C18.15,56.65,18.17,48.12,18.2,45.69Zm91.68-4.5h-67c-8.15,0-9.7,1.51-9.7,9.48q0,42,0,84c0,7.68,1.58,9.26,9.43,9.27q67,0,134,0c7.32,0,9.31-1.94,9.32-9.08q0-42.24,0-84.49c0-7.49-1.69-9.16-9.05-9.16Q143.38,41.17,109.89,41.18Z"/><path class="cls-2" d="M207.32,165.05l2.49,0c10.29.1,10.29.1,9.25,10.43A16.09,16.09,0,0,1,203,190.18c-11,.11-21.91,0-32.87,0H49c-10.66,0-21.32,0-32,0-10.35,0-16.83-6.52-16.9-16.8a30.2,30.2,0,0,0,0-4c-.52-3.66,1.19-4.66,4.55-4.34a69,69,0,0,0,7,0ZM109.11,173c-6.81,0-13.62,0-20.43,0-2.55,0-5.05.42-5,3.42,0,2.77,2.23,3.67,4.94,3.66,13.79-.06,27.57,0,41.36,0,2.59,0,4.83-.71,5-3.66.15-3.36-2.47-3.39-4.89-3.39Z"/><path class="cls-3" d="M183.31,256.31a195,195,0,0,1,26.59,3.86,18.75,18.75,0,0,1,3.78,1.23c1.28.61,3.19.88,3.12,2.77s-1.89,2.22-3.23,2.68c-7.28,2.46-14.88,3.4-22.47,4.19-23.18,2.43-46.45,2.62-69.72,3.41-18.66.64-37.25-.31-55.83-.75S28,272.39,9.61,268.17c-3-.68-7.82-.72-7.84-3.88,0-3.73,4.93-3.5,8-4.25,12.79-3.18,25.94-3.84,39-4.74,15.77-1.09,31.58-1.48,47.4-1.32C100.62,254,158.79,254,183.31,256.31Z"/><path class="cls-4" d="M207.32,165.05H11.63c0-34.37.14-68.75,0-103.12,0-4.58.84-8.13,5.4-9.5l1.15-.4s0,4.9,0,6.51q.08,39.74,0,79.48c0,12.69,6.44,19.82,19.07,19.86q72.23.26,144.47,0c12,0,18.74-9.21,18.58-18.92-.49-29-.15-58-.13-87,5.5,1.6,7.34,4.89,7.28,10.92C207.11,97,207.3,131,207.32,165.05Z"/><path class="cls-4" d="M49,190.2H170.11q-29,16.89-58,33.82a4.4,4.4,0,0,1-5,0Q78,207.06,49,190.2Z"/><path class="cls-4" d="M156.7,27.09,62,27.12Q84.56,14,107.1.8a4.07,4.07,0,0,1,4.61-.15C126.64,9.59,142.09,17.61,156.7,27.09Z"/></svg>