<svg id="Layer_1" data-name="Layer 1" xmlns="http://www.w3.org/2000/svg" viewBox="0 0 229.71 229.71"><defs><style>.cls-1{fill-rule:evenodd;}</style></defs><title>GE-logo</title><path class="cls-1" d="M229.71,114.86A114.86,114.86,0,1,0,114.86,229.71,115,115,0,0,0,229.71,114.86Zm-5.48,0A109.42,109.42,0,1,1,114.86,5.4c60.46,0,109.38,49.33,109.38,109.46Zm-7,0C217.28,78.54,198.79,41,159,29c-8.26-2.54-15.22-4.17-23.23-4.17-18.41,0-19.06,10.47-27.65,10.47a7.57,7.57,0,0,1-7.94-7.61c0-7.28,8.59-13,22.25-13,12.76,0,22.58,3.19,24.46,4.09l.33-.9a93.76,93.76,0,0,0-32.4-5.48C78.21,12.35,41,31.17,29,70.6c-2.54,8.26-4.17,15.3-4.17,23.23,0,18.49,10.47,19.39,10.47,28a7.51,7.51,0,0,1-7.61,7.69c-7.28,0-13-8.34-13-22.33a83.47,83.47,0,0,1,3.76-24.46l-.9-.33c-1,3.85-5.15,15.63-5.15,32.48,0,36.89,18.82,74.12,58.25,86.22,8.26,2.54,15.3,4.09,23.23,4.09,18.49,0,19.06-10.8,27.65-10.8a7.91,7.91,0,0,1,8,7.94c0,7-8.34,12.76-22.33,12.76a77.28,77.28,0,0,1-24.46-3.84l-.33,1c3.52,1.55,15.63,5.07,32.48,5.07,36.57,0,74.12-18.49,85.9-58.25,2.54-7.94,4.09-15.22,4.09-22.91,0-18.73-10.47-19.39-10.47-28,0-4.75,3.19-7.94,7.61-7.94,7.36,0,13.09,8.59,13.09,22.58a83.58,83.58,0,0,1-3.84,24.46l1,.33a102.77,102.77,0,0,0,5.07-32.72Zm-38.53,30.51c0,14.32-12.35,29.29-30.51,29.29-21.92,0-33.05-18.49-33.05-35,0-23.23,15.87-33.05,22.58-36.57a11.49,11.49,0,0,1-3.19-3.84,302.16,302.16,0,0,1-29.29,18.49c-.65,10.14-1.55,21.27-4.17,29-5.4,16.2-16.52,28-31.17,28-12.35,0-18.41-8.92-18.41-18.49,0-7,4.09-15.87,11.45-22.58,9.24-8.26,19.39-13.33,33.38-20.7.33-1.88.65-3.76,1-6.05-3.52,3.19-8.59,4.5-12.76,4.5-6.63,0-12.11-5.73-13.33-11.78-8.92-.65-15.63-7-16-17.18,0-7.28,2.86-13.66,7.69-13.66a2.57,2.57,0,0,1,2.54,2.86c0,1.23-1.64,5.4-1.64,9.49s2,9.57,7,9.57c0-16.53,12.11-37.88,26.42-37.88,9.49,0,10.8,7,10.8,10.23,0,15-15,31.5-27.08,35.59.33,1.31,1.64,4.83,5.48,4.83,4.74,0,10.47-4.5,13.33-8,1.23-6.63,6.05-16.2,12.43-16.2,2.54,0,3.76,1.88,3.76,4.17,0,4.74-5.07,10.8-8.92,14.89a57.1,57.1,0,0,0-.9,9.57c11.13-6.71,16.85-10.14,25.11-16.2a26.87,26.87,0,0,1-.65-7.36c0-14.89,9.9-31.5,22.91-31.5,7.36,0,11.13,5.15,11.13,10.88,0,10.8-9.24,20.29-22.25,30.19a10.87,10.87,0,0,0,5.07,6.05c.33-.66,4.5-1.31,7.93-1.31,3.85,0,9.24,1,9.24,4.83,0,4.42-6.05,5.4-10.8,5.4a24.56,24.56,0,0,1-6.71-.65c-7,1.88-20.37,9.9-20.37,30.19,0,13.74,8.59,26.42,22,26.42,10.14,0,18.41-7.61,18.73-19.39,0-7.61-3.19-15.63-10.8-15.63a7.09,7.09,0,0,0-7.28,7c-.33,6.38,4.42,7,4.42,11.13,0,2.86-2.21,4.17-4.42,4.17-6.38,0-11.21-6.38-11.21-14.32,0-9.57,8.34-17.51,19.14-17.51,14,0,21.27,12.11,21.27,25.12ZM155.27,65.2c0-1.55-.33-3.52-2.29-3.52-4.74,0-12.35,10.23-12.35,23.23,9.49-8.26,14.64-15.3,14.64-19.72ZM98.9,63.89a2,2,0,0,0-2.21-2.21c-6.71,0-16.2,17.51-16.2,28C91,83.93,98.9,70.93,98.9,63.89Zm-3.76,59.56c-14.32,7-32.48,19.39-32.48,33.05,0,5.07,2.54,8.26,7.28,8.26,14,0,22.58-22.25,25.2-41.31Z"/></svg>