<?xml version="1.0" encoding="utf-8"?>
<!-- Generator: Adobe Illustrator 22.0.1, SVG Export Plug-In . SVG Version: 6.00 Build 0)  -->
<svg version="1.1" id="Layer_1" xmlns="http://www.w3.org/2000/svg" xmlns:xlink="http://www.w3.org/1999/xlink" x="0px" y="0px"
	 viewBox="0 0 380.6 68.3" style="enable-background:new 0 0 380.6 68.3;" xml:space="preserve">
<style type="text/css">
	.st0{display:none;}
	.st1{display:inline;fill:#963B7F;}
	.st2{display:inline;fill:#EB7CAD;}
	.st3{display:inline;}
	.st4{fill:#653B7A;}
	.st5{fill:#B19ACA;}
	.st6{display:inline;fill:#653B7A;}
	.st7{enable-background:new    ;}
	.st8{fill:#D9E03D;}
	.st9{fill:#5BA044;}
	.st10{fill:#00AFE9;}
	.st11{fill:#0061AF;}
	.st12{display:inline;fill:#0061AF;}
</style>
<g class="st0">
	<path class="st1" d="M62.2,14.8c1.5-0.7,2.8-1.4,4.1-2c0.4-0.2,0.9-0.1,1.2,0.2c7.8,4.8,16.4,6.5,25.4,6.9c1.3,0.1,1.8,0.3,1.8,1.8
		c-0.1,4.5,0,9.1,0,14c1.6-2.2,4.3-3.4,7-3.3c4.5,0.2,7.5,2.8,7.7,7.3c0.2,4.9,0.1,9.9,0.2,14.8c0,0.7-0.2,1.1-0.9,1
		c-0.1,0-0.2,0-0.3,0c-1.4,0-3.3,0.5-4.2-0.3s-0.3-2.7-0.3-4.1c-0.1-2.5,0-5,0-7.5c0-0.8-0.1-1.7-0.3-2.5c-0.5-2.4-1.5-3.4-3.5-3.6
		c-2.1-0.2-4.1,1-4.9,3c-0.3,1-0.5,2.1-0.4,3.1c0,3.4,0,6.9,0,10.3c0,1.1-0.2,1.5-1.4,1.5c-4.3,0-4.3,0-4.3-4.3c0-8.7,0-17.4,0-26.1
		c0-1.3-0.3-1.7-1.6-1.8c-6.7-0.6-13.3-2.4-19.5-5.2C65.8,17.2,63.9,16.1,62.2,14.8z"/>
	<path class="st1" d="M15.3,52.8C12.4,56.1,7.7,57,3.8,55C1.5,54.1,0,51.9,0,49.4c-0.2-2.6,1.2-5.1,3.5-6.3c3-1.6,6.3-1.7,9.6-1.8
		c0.8,0,2,0.6,2.3-0.5c0.2-1.2-0.3-2.4-1.3-3.1c-1.7-1.3-3.6-1.3-5.6-0.9c-0.8,0.2-1.5,0.4-2.2,0.8c-2.2,1.1-2.2,1.1-4.1-0.8
		c-0.8-0.8-0.8-1.3,0.1-1.9c4-2.9,9.2-3.6,13.8-1.7c3.3,1.2,4.4,4.2,4.5,7.4c0.1,4.5,0,9.1,0,13.7c0,0.4,0.2,1-0.5,1
		c-1.4,0.1-2.8,0-4.2,0c-0.6,0-0.5-0.5-0.5-0.9C15.6,53.9,15.5,53.3,15.3,52.8z M12.8,45.4c-1.9-0.1-3.8,0.3-5.5,1.1
		c-1.8,0.9-2.2,2.9-0.8,4.1c1.6,1.4,3.5,1.3,5.4,0.8c1.6-0.4,2.8-1.6,3.2-3.1C15.7,45.8,15.4,45.4,12.8,45.4z"/>
	<path class="st1" d="M79,52.6c-3.7,3.6-8,4.4-11.9,2.4c-2.2-1-3.6-3.2-3.7-5.6c-0.2-2.5,1.1-4.9,3.3-6.1c3.1-1.8,6.6-1.9,10-2
		c0.7,0,1.8,0.5,2.1-0.4c0.3-1.1-0.1-2.2-0.9-2.9c-1.9-1.8-4.3-1.6-6.6-1c-0.6,0.2-1.2,0.5-1.8,0.8c-0.7,0.2-1.2,1.3-1.8,0.9
		c-0.9-0.7-1.8-1.5-2.5-2.4c-0.4-0.4,0-0.7,0.3-0.9c3.3-3.3,11.3-4.1,15.2-1.5c2.2,1.5,3.5,4.1,3.4,6.8c0.1,4.6,0,9.2,0.1,13.8
		c0,0.8-0.2,1.2-1,1.1c-0.4,0-0.9,0-1.3,0C79.1,55.4,79.1,55.4,79,52.6z M73.2,51.7c3.4,0,5.6-2.1,5.5-5.3c0-0.4,0.1-1-0.5-1
		c-2.7,0-5.4-0.2-7.7,1.3c-1.8,1.1-1.7,3.4,0.2,4.4C71.4,51.5,72.3,51.7,73.2,51.7L73.2,51.7z"/>
	<path class="st1" d="M151,51.8c-0.4,0.5-0.2,1-0.2,1.6c0,4.5-0.1,9.1,0,13.7c0,1.4-0.5,1.6-1.7,1.6s-1.6-0.4-1.6-1.7
		c0-11,0-22,0-33c0-1.2,0.3-1.6,1.6-1.6c1.1,0.1,2,0,1.8,1.5c-0.2,0.5-0.1,1.1,0.3,1.6c2.8-3,7-4.3,11.1-3.4c2.7,0.5,5.2,2,6.9,4.1
		c3.5,4.8,3.2,11.4-0.8,15.7C163.7,56.6,157.3,56.5,151,51.8z M167.8,43.7c0-5.2-3.4-8.9-8.2-8.9c-4.8-0.1-8.8,3.7-8.9,8.5
		c0,0.1,0,0.2,0,0.3c-0.1,4.8,3.6,8.7,8.4,8.9c0.1,0,0.3,0,0.4,0C164.5,52.5,167.8,49,167.8,43.7L167.8,43.7z"/>
	<path class="st2" d="M137.8,62.8c-1,0.2-1.2-0.7-1.5-1.3c-3-5.9-6.7-11.4-11-16.4c-4.4-5-9.5-9.2-15.2-12.6c-1.2-0.7-1-1.1-0.2-1.9
		c2.6-2.5,2.6-2.5,5.6-0.7c12.3,7.3,21.3,17.5,28.4,29.8c0.6,1.1,0.6,1.6-0.8,1.9C141.4,62,139.6,62.4,137.8,62.8z"/>
	<path class="st1" d="M34.2,32.4c2.6-0.2,5.2,0.7,7.2,2.4c0.7,0.6,0.9,1.2,0,1.8c-0.2,0.2-0.4,0.4-0.6,0.5c-0.6,0.7-1.2,1.2-2,1.7
		c-1,0.4-1.3-0.9-2.1-1.3c-1.4-0.8-3.2-0.9-4.7-0.2c-0.7,0.3-1.2,1-1.2,1.8c0,0.8,0.5,1.4,1.2,1.6c1,0.4,2,0.6,3,0.9
		c1.3,0.4,2.6,0.6,3.8,1.1c2.3,0.7,3.9,2.8,4,5.2c0.3,2.4-0.7,4.7-2.7,6.1c-3.8,2.8-11.1,2.5-14.7-0.5c-0.9-0.7-1.3-1.3-0.1-2.1
		c0.2-0.2,0.4-0.3,0.6-0.5c0.6-0.6,1.2-1.5,2-1.7s1.3,0.9,2.1,1.4c1.6,1.2,3.7,1.4,5.5,0.7c0.9-0.3,1.6-1.1,1.6-2.1
		c0-0.9-0.6-1.7-1.5-2c-1.2-0.4-2.4-0.8-3.7-1c-0.9-0.2-1.7-0.4-2.6-0.7c-2.3-0.8-4-2.2-4.3-4.8c-0.5-2.6,0.7-5.3,2.9-6.7
		C29.8,32.8,32,32.3,34.2,32.4z"/>
	<path class="st1" d="M61.1,50.5c0,0.7,0,1.3,0,1.8c0,3.3,0,3.3-3.3,3.6c-1.2,0.1-2.4,0.1-3.6-0.2c-2.9-0.5-4.3-2-4.8-4.9
		c-0.5-3.8-0.2-7.5-0.2-11.3c0-1.4-0.2-1.9-1.8-1.9c-2.8,0.1-2.7,0-2.9-2.9c-0.1-1.6,0.4-2.2,2-2c0.4,0.1,0.9,0,1.3,0
		c1,0.1,1.3-0.3,1.3-1.3c-0.1-1.3,0-2.7,0-4c0-0.8,0.2-1.2,1.1-1.2c1.2,0.1,2.4,0.1,3.7,0c0.9,0,1.1,0.4,1.1,1.2c0,1.4,0,2.8,0,4.2
		c0,0.9,0.3,1.2,1.2,1.1c1.3,0,2.7,0,4,0c0.4,0,1-0.1,1,0.6c0,1.2,0,2.4,0,3.7c0,0.7-0.5,0.6-0.9,0.6c-1.3,0-2.7,0.1-4,0
		c-1,0-1.2,0.3-1.2,1.2c0,2.8,0,5.7,0,8.5c0,3,1.3,4.1,4.3,3.6C59.8,50.9,60.3,50.7,61.1,50.5z"/>
	<path class="st1" d="M241,44.6c-2.6,0-5.1,0.1-7.7,0c-1.5-0.1-1.6,0.5-1.2,1.7c1,3.1,2.9,5.3,6.1,6c3,0.8,6.2-0.3,8.1-2.8
		c1.2-1.4,1.6,0,2.3,0.4s1,0.9,0.3,1.7c-3.5,3.7-8.9,4.9-13.6,3c-4.5-1.8-7.2-6.3-7-11.6c0.1-4.9,3.4-9.2,8.1-10.6
		c5.7-1.8,11.7,1.4,13.5,7.1c0.4,1.4,0.6,2.8,0.4,4.2c-0.1,1-0.5,1-1.3,1C246.4,44.6,243.7,44.6,241,44.6z M239.3,41.9
		c2,0,4-0.1,6,0c1.6,0.1,1.7-0.7,1.4-1.9c-0.8-3.3-3.9-5.6-7.3-5.3c-3.5,0.2-6.9,3.1-7.4,6.1c-0.2,1,0.3,1,1,1L239.3,41.9z"/>
	<path class="st1" d="M368.3,51.4c-2.8,3.8-6.4,4.6-10.4,3.7c-3-0.7-4.9-2.8-5.1-5.4c-0.3-3.4,1-5.8,4-7.1s6.3-1.5,9.6-1.5
		c1.9,0,2-0.1,1.6-2c-0.5-3-2.8-4.6-6.1-4.3c-2,0.1-3.8,0.8-5.4,2c-1.5,1.3-1.7-0.5-2.3-1c-0.9-0.7-0.1-1.2,0.4-1.5
		c3.6-2.5,8.1-3.2,12.2-1.7c3,1,4.5,3.7,4.6,7.2c0.1,4.7-0.3,9.4,0.3,14.1c0.1,0.7-0.2,1-0.8,0.8c-0.8-0.2-2,0.7-2.4-0.7
		C368.3,53.2,368.2,52.3,368.3,51.4z M365,43.8c-2.1,0-4.2,0.4-6.1,1.2c-1.9,0.8-2.8,2.2-2.7,3.8c0.2,1.8,1.5,3.2,3.3,3.5
		c3.4,1.1,7.1-0.7,8.3-4.2c0.2-0.5,0.3-1.1,0.3-1.6C368.3,43.7,368.3,43.7,365,43.8z"/>
	<path class="st1" d="M313.3,55.4c-6.9,0-11.9-4.9-11.9-11.8c-0.2-6.3,4.8-11.6,11.1-11.7c0.2,0,0.5,0,0.7,0c6.9,0,12,4.9,12,11.8
		S320.2,55.4,313.3,55.4z M304.9,43.6c0,5.2,3.5,8.8,8.4,8.8s8.4-3.6,8.4-8.8s-3.5-8.8-8.4-8.8S304.9,38.5,304.9,43.6L304.9,43.6z"
		/>
	<path class="st1" d="M188.3,43.6c0-6.9,5-11.7,12-11.7s11.8,5,11.8,12c0,6.8-5,11.6-11.9,11.6S188.3,50.6,188.3,43.6z M208.5,43.9
		c0.1-5.2-3.2-8.9-8.1-9s-8.4,3.5-8.6,8.6s3.3,8.9,8.2,9S208.4,49.1,208.5,43.9L208.5,43.9z"/>
	<path class="st1" d="M332.4,35.9c2.3-3.2,6.4-4.7,10.3-3.7c3.3,0.7,5.7,3.6,5.6,7c0.2,4.9,0.1,9.9,0.1,14.8c0,1.6-1.3,0.7-2,0.8
		s-1.3-0.1-1.3-1.1c0.1-3.5,0-7.1,0-10.7c0-0.7,0-1.5,0-2.2c-0.2-3.5-1.6-5.3-4.4-5.8c-3-0.6-6,0.9-7.3,3.7c-0.7,1.5-1,3.1-1,4.7
		c0,3.4-0.1,6.8,0,10.2c0,1.4-0.7,1.4-1.6,1.3s-1.7,0.3-1.7-1.2c0-6.7,0-13.3-0.1-20c0-0.9,0.3-1.3,1.1-1.1s2.2-0.8,2.2,1
		C332.4,34.2,332.4,34.8,332.4,35.9z"/>
	<path class="st1" d="M261.7,55.4c-3.5,0-6.3-1-8.4-3.4c-0.6-0.7-0.7-1.1,0.2-1.7c1.2-0.8,1.9-1.4,3.2,0.1c1.8,2.2,5.3,2.5,7.8,1.3
		c1.2-0.5,2-1.7,2-3c0-1.3-0.8-2.4-2-2.8c-1.4-0.6-2.9-1-4.5-1.2c-1.1-0.2-2.2-0.6-3.3-1.1c-2.9-1.4-4-5-2.6-7.8
		c0.3-0.5,0.6-1,1.1-1.5c3.1-3.3,10.1-3.3,13.1,0.1c0.5,0.5,1.6,1.2,0.4,2c-0.8,0.5-1.6,2.4-3,0.4c-1.7-2.1-4.6-2.6-6.9-1.3
		c-1.1,0.5-1.8,1.5-1.7,2.7c0,1.1,0.7,2.2,1.8,2.6c1.7,0.6,3.4,1.1,5.1,1.4c4.2,1,6.2,3.3,6.1,6.7s-2.5,5.7-6.5,6.4
		C262.9,55.3,262.3,55.4,261.7,55.4z"/>
	<path class="st1" d="M280.4,55.4c-3,0.1-5.9-1.1-7.9-3.3c-0.6-0.7-0.8-1.1,0.1-1.8c1.2-0.9,2-1.2,3.2,0.3c1.8,2.1,5,2.4,7.5,1.3
		c1.3-0.5,2.2-1.7,2.2-3c0-1.4-1-2.6-2.3-2.9c-1.4-0.5-2.9-0.8-4.3-1.2c-1.1-0.2-2.2-0.6-3.3-1.2c-2.9-1.6-3.9-5.2-2.4-8
		c0.3-0.5,0.6-0.9,1-1.3c3.4-3.4,10.8-3.1,13.5,0.6c0.4,0.5,1.1,1.2,0,1.5c-0.9,0.3-1.5,2.2-2.8,0.6c-1.5-2-4.2-2.8-6.5-1.8
		c-1.3,0.4-2.2,1.5-2.3,2.8c-0.1,1.3,0.8,2.6,2.1,2.8c1.7,0.5,3.4,1,5.1,1.4c3.9,1,5.8,3.1,5.7,6.5s-2.2,5.6-6,6.4
		C282.2,55.3,281.3,55.4,280.4,55.4z"/>
	<path class="st1" d="M218.4,45.1c0-2.7-0.1-5.5,0-8.2c0.1-1.3-0.4-1.7-1.6-1.5c-0.4,0-0.9,0-1.3,0c-2,0-2-0.1-1.8-2.1
		c0-0.6,0.2-1,0.9-0.9c0.2,0,0.3,0,0.5,0c3.4-0.1,3.4-0.1,3.4-3.5c-0.1-1.7,0-3.4,0.3-5.1c0.8-3.9,4.5-6.4,8.4-5.7
		c0.3,0.1,0.7,0.2,1,0.3c0.9,0.3,0.6,0.9,0.4,1.3c-0.3,0.6,0.3,1.7-1,1.7c-5-0.1-5.8,0.7-5.8,5.8c0,1.4,0.1,2.8,0,4.2
		c-0.1,1,0.3,1.3,1.3,1.2s1.6,0,2.3,0c0.9-0.1,1.8,0.5,1.9,1.4c0.1,0.4,0,0.8-0.2,1.1c-0.2,0.5-0.6,0.4-1,0.4
		c-0.9,0.1-1.9,0.1-2.8,0c-1.4-0.2-1.5,0.5-1.5,1.6c0.1,5.4,0,10.8,0.1,16.2c0,1.3-0.3,1.7-1.6,1.7s-1.8-0.4-1.7-1.8
		C218.5,50.4,218.4,47.7,218.4,45.1z"/>
	<path class="st1" d="M377.3,36.7c0-5.5,0-11.1,0-16.7c0-1.3,0.6-1.4,1.6-1.4s1.8-0.2,1.8,1.4c-0.1,11.2-0.1,22.3,0,33.5
		c0,1.7-1,1.2-1.9,1.3s-1.5,0-1.5-1.3C377.4,48,377.3,42.4,377.3,36.7z"/>
	<path class="st1" d="M112.2,20.3c6.7-2.8,13.8-4.6,21-5.2c3.9-0.3,7.8-0.4,11.6-0.2c1.3,0.3,2.2,1.5,2.2,2.9
		c-0.2,0.7-0.8,0.4-1.2,0.4c-3.5-0.1-7,0-10.5,0.3c-6.1,0.5-12.2,1.9-17.8,4.3c-1.3,0.6-2.3,0.6-3.3-0.6
		C113.5,21.5,112.9,20.8,112.2,20.3z"/>
	<path class="st1" d="M178.8,35.8c1.6-2.1,3.4-3.5,6-3.8c0.4-0.1,0.9-0.1,1.3-0.1c2.3,0,2.8,0.8,1.8,2.9c-0.3,0.6-0.7,0.4-1.1,0.4
		c-3.8-0.4-7.3,2.4-7.7,6.2c0,0.3,0,0.7,0,1c-0.1,3.7-0.1,7.3,0,11c0,1.4-0.5,1.5-1.6,1.5s-1.8,0.1-1.7-1.4c0.1-6.6,0-13.2-0.1-19.8
		c0-1.1,0.5-1.2,1.3-1.1s1.9-0.5,1.8,1.1C178.7,34.3,178.8,35.1,178.8,35.8z"/>
	<path class="st2" d="M100,10.7c-0.1-3.6,1.1-7.1,3.5-9.8c0.6-0.7,4-0.7,4.4,0c0.2,0.4-0.1,0.6-0.3,0.9c-3.2,4.4-3.3,9.1-1.3,14
		c0.3,0.9,0.4,1.2-0.7,1.4c-4.6,0.6-4,1.9-5.3-3.3C100.1,12.8,100,11.8,100,10.7z"/>
	<path class="st1" d="M293.2,43.8c0-3.3,0.1-6.5,0-9.8c0-1.3,0.5-1.6,1.6-1.5c1,0.1,1.8-0.1,1.7,1.4c-0.1,6.6-0.1,13.2,0,19.8
		c0,1.5-0.9,1.2-1.7,1.2s-1.7,0.2-1.7-1.3C293.3,50.3,293.2,47,293.2,43.8z"/>
	<path class="st1" d="M297.2,23.9c-0.1,1.3-1.1,2.3-2.3,2.4c-1.3,0-2.4-1.1-2.4-2.3s1.1-2.4,2.3-2.4c0,0,0,0,0,0
		C296.2,21.7,297.2,22.7,297.2,23.9z"/>
</g>
<g class="st0">
	<g class="st3">
		<path class="st4" d="M168,28c-1.4-2.2-3.8-3.2-6.3-3.2c-3.6,0-7.3,1.7-7.3,5.8c0,3.2,1.8,4.6,7.2,6.3c5.3,1.7,10.3,3.5,10.3,10.2
			c0,6.9-5.9,10.1-12.1,10.1c-4,0-8.3-1.3-10.6-4.8l3.5-2.9c1.5,2.5,4.4,3.8,7.3,3.8c3.5,0,7.5-2,7.5-6c0-4.2-2.9-5-9-7
			c-4.9-1.6-8.6-3.7-8.6-9.5c0-6.6,5.7-9.9,11.7-9.9c3.8,0,7.1,1.1,9.6,4L168,28z"/>
		<path class="st4" d="M184.9,61.6c-1.5,3.8-3,6.5-7.6,6.5c-1.1,0-2.4-0.1-3.4-0.6l0.5-3.3c0.8,0.3,1.6,0.4,2.7,0.4
			c2.5,0,3.4-1.5,4.2-3.7l1.6-4.3l-9.4-22.9h4.4l7.1,17.8h0.1l6.8-17.8h4.1L184.9,61.6z"/>
		<path class="st4" d="M200.4,50.4c1.5,1.8,3.2,3.1,5.8,3.1c2.4,0,5-1,5-3.5c0-2.4-2.4-3.1-4.9-3.6c-4.3-1-8-1.9-8-6.6
			c0-4.4,4.3-6.7,8.5-6.7c3.2,0,6.2,1.2,7.7,4.1l-3.2,2.1c-1-1.6-2.6-2.7-4.8-2.7c-2.1,0-4.5,1-4.5,3.2c0,1.9,2.7,2.7,5.7,3.3
			c4,0.8,7.4,2.2,7.4,6.8c0,5.2-4.6,7.1-9.1,7.1c-3.8,0-6.6-1-8.9-4.2L200.4,50.4z"/>
		<path class="st4" d="M221.2,21.9h6.1l11.7,27h0.1l11.8-27h5.9v34.4h-4.1V27.5h-0.1l-12.4,28.9h-2.5l-12.4-28.9h-0.1v28.9h-4.1
			V21.9z"/>
		<path class="st4" d="M264.9,21.9h4.1v30.6h15.8v3.8h-19.8V21.9z"/>
	</g>
	<g class="st3">
		<path class="st5" d="M104,1c-0.6,0.7-1.2,1.4-1.6,2.1c-0.5,0.7-0.9,1.5-1.3,2.3c-0.4,0.8-0.7,1.7-0.9,2.5
			c-0.2,0.9-0.4,1.8-0.4,2.8c0,0.6,0,1.2,0,1.8c0,0.6,0.1,1.3,0.2,1.9c0.1,0.7,0.3,1.4,0.5,2c0.2,0.7,0.5,1.4,0.8,2.2l5.1-0.9h0
			c-0.3-0.6-0.6-1.3-0.8-1.9c-0.2-0.6-0.4-1.2-0.5-1.8c-0.1-0.6-0.2-1.2-0.3-1.7c-0.1-0.6-0.1-1.1-0.1-1.7c0-0.9,0.1-1.7,0.2-2.5
			c0.1-0.8,0.4-1.6,0.7-2.3c0.3-0.7,0.6-1.4,1-2.1c0.4-0.7,0.9-1.3,1.4-1.9L104,1"/>
		<path class="st5" d="M108.6,32.6L108.6,32.6L108.6,32.6 M112.2,29.2l-3.6,3.4c2.8,1.6,5.4,3.3,7.9,5.3c2.6,2,5.1,4.3,7.4,6.8
			c2.4,2.6,4.7,5.4,6.8,8.5c2.2,3.2,4.2,6.8,6,10.5l7.5-1.6c-2.2-4.1-4.7-7.9-7.2-11.3c-2.4-3.3-5-6.2-7.8-9
			c-2.6-2.6-5.4-4.9-8.3-7.1C118.2,32.7,115.3,30.8,112.2,29.2"/>
	</g>
	<path class="st6" d="M66.6,13.5l-4.5,2.2c1.6,1.2,3.4,2.3,5.5,3.3c2.2,1,4.6,1.9,7.2,2.7c2.7,0.8,5.6,1.4,8.8,1.9
		c3.2,0.5,6.5,0.8,9.9,0.9l0.7-3.6c-3-0.1-5.9-0.4-8.6-0.8c-2.7-0.4-5.3-0.9-7.6-1.6c-2.3-0.7-4.5-1.4-6.4-2.3
		C69.7,15.4,68,14.5,66.6,13.5"/>
	<path class="st6" d="M140.1,15.7c-2.5,0-4.9,0.1-7.3,0.3c-2.4,0.2-4.8,0.5-7.1,1c-2.3,0.4-4.7,1-6.9,1.7c-2.3,0.7-4.6,1.5-6.8,2.5
		l3.4,3c2.1-0.9,4.2-1.7,6.3-2.4c2.1-0.7,4.3-1.2,6.4-1.6c2.2-0.4,4.4-0.7,6.6-0.9c2.2-0.2,4.5-0.3,6.8-0.3c0.4,0,0.9,0,1.3,0
		c0.4,0,0.9,0,1.3,0c0.4,0,0.9,0,1.3,0.1c0.4,0,0.9,0,1.3,0.1l-1.1-3.2c-0.5,0-0.9-0.1-1.4-0.1c-0.5,0-0.9,0-1.4-0.1
		c-0.5,0-0.9,0-1.4,0C141,15.7,140.6,15.7,140.1,15.7"/>
	<path class="st6" d="M15.5,53.1h-0.1c-1.6,2.5-4.2,3.6-7.2,3.6C4,56.8,0,54.5,0,50c0-7.3,8.5-7.8,14.1-7.8h1.4v-0.6
		c0-2.8-2.1-4.2-5.1-4.2c-2.3,0-4.5,0.9-6,2.3l-2.9-2.9c2.5-2.5,6-3.6,9.5-3.6c9.6,0,9.6,6.9,9.6,10.1v12.9h-5V53.1z M15.2,46.2H14
		c-3.1,0-8.4,0.2-8.4,3.5c0,2.1,2.1,2.9,3.9,2.9c3.8,0,5.6-2,5.6-5.1V46.2z"/>
	<path class="st6" d="M38.3,40c-1.1-1.5-2.5-2.3-4.4-2.3c-1.5,0-3.3,0.7-3.3,2.4c0,4,12.1,0.7,12.1,9.5c0,5.3-5.1,7.2-9.7,7.2
		c-3.5,0-6.4-0.9-8.7-3.5l3.7-3.5c1.4,1.6,2.9,2.8,5.3,2.8c1.6,0,3.7-0.8,3.7-2.6c0-4.6-12.1-1-12.1-9.5c0-5,4.5-7.2,9-7.2
		c3,0,6.2,0.9,8,3.4L38.3,40z"/>
	<path class="st6" d="M44.4,38.5v-4.8h4.6v-6.5h5.6v6.5h6.2v4.8h-6.2v9.8c0,2.2,0.7,3.6,3.1,3.6c1,0,2.3-0.2,3-0.7V56
		c-1.2,0.6-3.1,0.7-4.4,0.7c-5.9,0-7.3-2.7-7.3-7.9V38.5H44.4z"/>
	<path class="st6" d="M78.7,53.1h-0.1c-1.6,2.5-4.2,3.6-7.2,3.6c-4.2,0-8.2-2.3-8.2-6.7c0-7.3,8.5-7.8,14.1-7.8h1.4v-0.6
		c0-2.8-2.1-4.2-5.1-4.2c-2.3,0-4.5,0.9-6,2.3l-2.9-2.9c2.5-2.5,6-3.6,9.5-3.6c9.6,0,9.6,6.9,9.6,10.1v12.9h-5V53.1z M78.4,46.2
		h-1.2c-3.1,0-8.4,0.2-8.4,3.5c0,2.1,2.1,2.9,3.9,2.9c3.8,0,5.7-2,5.7-5.1V46.2z"/>
	<path class="st6" d="M94.2,36.9L94.2,36.9c1-1.9,3.2-3.7,6.7-3.7c6,0,8.2,4.2,8.2,8.8v14.1h-5.6V44.8c0-2.5-0.2-6.6-4.1-6.6
		c-3.7,0-5.1,2.7-5.1,5.7v12.2h-5.6V20.9h5.6V36.9z"/>
</g>
<g>
	<g>
		<g>
			<g>
				<g class="st7">
					<g>
						<path class="st8" d="M104,2c-0.6,0.7-1.2,1.3-1.6,2.1c-0.5,0.7-0.9,1.5-1.3,2.3c-0.4,0.8-0.7,1.6-0.9,2.5
							c-0.2,0.9-0.4,1.8-0.4,2.8c0,0.6,0,1.2,0,1.8c0,0.6,0.1,1.3,0.2,1.9c0.1,0.7,0.3,1.3,0.5,2c0.2,0.7,0.5,1.4,0.8,2.1l5.1-0.8h0
							c-0.3-0.6-0.6-1.3-0.8-1.9c-0.2-0.6-0.4-1.2-0.5-1.8c-0.1-0.6-0.2-1.2-0.3-1.7c-0.1-0.6-0.1-1.1-0.1-1.6
							c0-0.9,0.1-1.7,0.2-2.5c0.1-0.8,0.4-1.6,0.7-2.3c0.3-0.7,0.6-1.4,1-2.1c0.4-0.7,0.9-1.3,1.4-1.9L104,2"/>
						<path class="st9" d="M66.6,14.4l-4.5,2.2c1.6,1.2,3.4,2.3,5.5,3.3c2.2,1,4.6,1.9,7.2,2.7c2.7,0.8,5.6,1.4,8.8,1.9
							c3.2,0.5,6.5,0.8,10,0.9l0.7-3.6c-3-0.1-5.9-0.3-8.6-0.8c-2.7-0.4-5.3-0.9-7.6-1.6c-2.3-0.7-4.5-1.4-6.4-2.3
							C69.7,16.3,68.1,15.4,66.6,14.4"/>
						<path class="st8" d="M108.7,33.3L108.7,33.3L108.7,33.3 M112.3,30l-3.6,3.3c2.8,1.6,5.4,3.3,7.9,5.3c2.6,2,5.1,4.3,7.4,6.7
							c2.4,2.6,4.7,5.4,6.8,8.4c2.2,3.2,4.2,6.7,6.1,10.5l7.5-1.6c-2.2-4.1-4.7-7.8-7.2-11.2c-2.4-3.2-5-6.2-7.8-8.9
							c-2.6-2.6-5.4-4.9-8.3-7C118.2,33.4,115.3,31.6,112.3,30"/>
						<path class="st9" d="M140.2,16.6c-2.5,0-4.9,0.1-7.3,0.3c-2.4,0.2-4.8,0.5-7.1,1c-2.3,0.4-4.7,1-6.9,1.7
							c-2.3,0.7-4.6,1.5-6.8,2.5l3.4,3c2.1-0.9,4.2-1.7,6.3-2.4c2.1-0.7,4.3-1.2,6.4-1.6c2.2-0.4,4.4-0.7,6.6-0.9
							c2.2-0.2,4.5-0.3,6.8-0.3c0.4,0,0.9,0,1.3,0c0.4,0,0.9,0,1.3,0c0.4,0,0.9,0,1.3,0.1c0.4,0,0.9,0,1.3,0.1l-1.1-3.1
							c-0.5,0-0.9-0.1-1.4-0.1c-0.5,0-0.9,0-1.4-0.1c-0.5,0-0.9,0-1.4,0C141.1,16.6,140.6,16.6,140.2,16.6"/>
					</g>
				</g>
			</g>
			<g>
				<path class="st9" d="M15.5,53.7h-0.1c-1.6,2.5-4.2,3.6-7.2,3.6C4,57.3,0,55.1,0,50.7c0-7.2,8.5-7.7,14.1-7.7h1.4v-0.6
					c0-2.7-2.1-4.2-5.1-4.2c-2.3,0-4.5,0.9-6,2.3l-2.9-2.9C3.9,35,7.4,34,11,34c9.6,0,9.6,6.9,9.6,10v12.8h-5V53.7z M15.2,46.8H14
					c-3.1,0-8.4,0.2-8.4,3.4c0,2,2.1,2.9,3.9,2.9c3.8,0,5.7-2,5.7-5.1V46.8z"/>
				<path class="st9" d="M38.3,40.7c-1.1-1.5-2.5-2.3-4.4-2.3c-1.5,0-3.3,0.7-3.3,2.4c0,4,12.1,0.7,12.1,9.4c0,5.3-5.1,7.1-9.7,7.1
					c-3.5,0-6.4-0.9-8.7-3.4l3.7-3.5c1.4,1.6,2.9,2.7,5.3,2.7c1.6,0,3.7-0.8,3.7-2.5c0-4.6-12.1-1-12.1-9.5c0-5,4.5-7.2,9-7.2
					c3,0,6.2,0.9,8,3.4L38.3,40.7z"/>
				<path class="st9" d="M44.4,39.3v-4.7h4.6v-6.4h5.6v6.4h6.2v4.7h-6.2V49c0,2.2,0.7,3.6,3.1,3.6c1,0,2.3-0.2,3-0.7v4.7
					c-1.2,0.6-3.1,0.7-4.4,0.7c-5.9,0-7.3-2.6-7.3-7.9V39.3H44.4z"/>
				<path class="st9" d="M78.8,53.7h-0.1c-1.6,2.5-4.2,3.6-7.2,3.6c-4.2,0-8.2-2.3-8.2-6.7c0-7.2,8.5-7.7,14.1-7.7h1.4v-0.6
					c0-2.7-2.1-4.2-5.1-4.2c-2.3,0-4.5,0.9-6,2.3l-2.9-2.9c2.5-2.5,6-3.6,9.5-3.6c9.6,0,9.6,6.9,9.6,10v12.8h-5V53.7z M78.5,46.8
					h-1.2c-3.1,0-8.4,0.2-8.4,3.4c0,2,2.1,2.9,3.9,2.9c3.8,0,5.7-2,5.7-5.1V46.8z"/>
				<path class="st9" d="M94.3,37.6L94.3,37.6c1-1.9,3.2-3.7,6.7-3.7c6,0,8.2,4.2,8.2,8.8v14h-5.6V45.5c0-2.5-0.2-6.5-4.1-6.5
					c-3.7,0-5.1,2.7-5.1,5.7v12.1h-5.6v-35h5.6V37.6z"/>
			</g>
		</g>
	</g>
	<g>
		<path class="st9" d="M169.8,33c-0.1,1.7-0.2,3.6-0.2,6.5v13.8c0,5.5-1,8.8-3.1,10.9c-2.1,2.2-5.1,2.8-7.8,2.8
			c-2.6,0-5.4-0.7-7.2-2l1-3.3c1.4,1,3.6,1.9,6.3,1.9c4,0,6.9-2.3,6.9-8.3v-2.7h-0.1c-1.2,2.2-3.5,4-6.9,4c-5.3,0-9.2-5-9.2-11.6
			c0-8.1,4.8-12.6,9.7-12.6c3.7,0,5.8,2.2,6.7,4.1h0.1l0.2-3.6H169.8z M165.8,42.4c0-0.7,0-1.4-0.2-2c-0.7-2.5-2.6-4.6-5.5-4.6
			c-3.7,0-6.4,3.5-6.4,9c0,4.7,2.1,8.5,6.4,8.5c2.4,0,4.6-1.7,5.4-4.4c0.2-0.7,0.3-1.6,0.3-2.3V42.4z"/>
		<path class="st9" d="M175.6,52.4c1.2,0.8,3.2,1.7,5.2,1.7c2.8,0,4.2-1.6,4.2-3.5c0-2.1-1.1-3.2-4-4.4c-3.9-1.5-5.7-3.9-5.7-6.7
			c0-3.8,2.8-7,7.4-7c2.2,0,4.1,0.7,5.3,1.5l-1,3.1c-0.8-0.6-2.4-1.4-4.4-1.4c-2.3,0-3.6,1.5-3.6,3.2c0,2,1.3,2.8,4.1,4
			c3.7,1.6,5.7,3.6,5.7,7.2c0,4.2-2.9,7.1-8.1,7.1c-2.4,0-4.5-0.6-6.1-1.6L175.6,52.4z"/>
		<path class="st9" d="M193.8,39.4c0-2.5,0-4.5-0.2-6.4h3.5l0.2,3.9h0.1c1.1-2.3,3.6-4.5,7.1-4.5c3,0,7.6,2,7.6,10.1v14.2h-3.9V43.1
			c0-3.8-1.3-7-5-7c-2.6,0-4.6,2-5.3,4.4c-0.2,0.5-0.3,1.3-0.3,2v14.3h-3.9V39.4z"/>
	</g>
</g>
<g class="st0">
	<g class="st3">
		<g>
			<g>
				<g class="st7">
					<g>
						<path class="st10" d="M103.7,0.5c-0.6,0.7-1.2,1.3-1.6,2.1c-0.5,0.7-0.9,1.5-1.3,2.3c-0.4,0.8-0.7,1.7-0.9,2.5
							c-0.2,0.9-0.4,1.8-0.4,2.8c0,0.6,0,1.2,0,1.8c0,0.6,0.1,1.3,0.2,1.9c0.1,0.7,0.3,1.3,0.5,2c0.2,0.7,0.5,1.4,0.8,2.1l5.1-0.9h0
							c-0.3-0.6-0.6-1.3-0.8-1.9c-0.2-0.6-0.4-1.2-0.5-1.8c-0.1-0.6-0.2-1.2-0.3-1.7c-0.1-0.6-0.1-1.1-0.1-1.6
							c0-0.9,0.1-1.7,0.2-2.5c0.1-0.8,0.4-1.6,0.7-2.3c0.3-0.7,0.6-1.4,1-2.1c0.4-0.7,0.9-1.3,1.4-1.9L103.7,0.5"/>
						<path class="st11" d="M66.4,12.9l-4.5,2.2c1.6,1.2,3.4,2.3,5.5,3.3c2.2,1,4.6,1.9,7.2,2.7c2.7,0.8,5.6,1.4,8.7,1.9
							c3.1,0.5,6.5,0.8,9.9,0.9l0.7-3.6c-3-0.1-5.9-0.3-8.6-0.8c-2.7-0.4-5.3-0.9-7.6-1.6c-2.3-0.7-4.5-1.4-6.4-2.3
							C69.5,14.9,67.8,13.9,66.4,12.9"/>
						<path class="st10" d="M108.3,32L108.3,32L108.3,32 M111.9,28.6l-3.6,3.4c2.8,1.6,5.4,3.3,7.9,5.3c2.6,2,5,4.3,7.3,6.7
							c2.4,2.6,4.7,5.4,6.7,8.4c2.2,3.2,4.2,6.7,6,10.5l7.5-1.6c-2.2-4.1-4.6-7.8-7.2-11.3c-2.4-3.2-5-6.2-7.8-8.9
							c-2.6-2.6-5.4-4.9-8.2-7.1C117.9,32.1,115,30.2,111.9,28.6"/>
						<path class="st11" d="M139.7,15.2c-2.5,0-4.9,0.1-7.3,0.3c-2.4,0.2-4.7,0.5-7.1,1c-2.3,0.4-4.7,1-6.9,1.7
							c-2.3,0.7-4.6,1.5-6.8,2.5l3.4,3c2.1-0.9,4.2-1.7,6.3-2.4c2.1-0.7,4.2-1.2,6.4-1.6c2.2-0.4,4.4-0.7,6.6-0.9
							c2.2-0.2,4.5-0.3,6.8-0.3c0.4,0,0.9,0,1.3,0c0.4,0,0.9,0,1.3,0c0.4,0,0.9,0,1.3,0.1c0.4,0,0.9,0,1.3,0.1l-1.1-3.2
							c-0.5,0-0.9-0.1-1.4-0.1c-0.5,0-0.9,0-1.4-0.1c-0.5,0-0.9,0-1.4,0C140.7,15.2,140.2,15.2,139.7,15.2"/>
					</g>
				</g>
			</g>
			<g>
				<path class="st11" d="M15.4,52.5h-0.1c-1.6,2.5-4.2,3.6-7.2,3.6C4,56.1,0,53.8,0,49.4c0-7.3,8.5-7.8,14.1-7.8h1.4V41
					c0-2.7-2.1-4.2-5.1-4.2c-2.3,0-4.5,0.9-6,2.3l-2.9-2.9c2.5-2.5,6-3.6,9.5-3.6c9.5,0,9.5,6.9,9.5,10.1v12.9h-5V52.5z M15.1,45.5
					h-1.2c-3.1,0-8.4,0.2-8.4,3.4c0,2,2.1,2.9,3.9,2.9c3.8,0,5.6-2,5.6-5.1V45.5z"/>
				<path class="st11" d="M38.2,39.4c-1.1-1.5-2.5-2.3-4.4-2.3c-1.5,0-3.3,0.7-3.3,2.4c0,4,12.1,0.7,12.1,9.5c0,5.3-5.1,7.2-9.6,7.2
					c-3.4,0-6.4-0.9-8.7-3.4l3.7-3.5c1.4,1.6,2.9,2.7,5.3,2.7c1.6,0,3.7-0.8,3.7-2.6c0-4.6-12.1-1-12.1-9.5c0-5,4.5-7.2,9-7.2
					c3,0,6.1,0.9,8,3.4L38.2,39.4z"/>
				<path class="st11" d="M44.3,37.9v-4.8h4.6v-6.5h5.6v6.5h6.1v4.8h-6.1v9.8c0,2.2,0.7,3.6,3.1,3.6c1,0,2.3-0.2,3-0.7v4.7
					c-1.2,0.6-3.1,0.7-4.4,0.7c-5.9,0-7.3-2.7-7.3-7.9V37.9H44.3z"/>
				<path class="st11" d="M78.5,52.5h-0.1c-1.6,2.5-4.2,3.6-7.2,3.6c-4.1,0-8.1-2.3-8.1-6.7c0-7.3,8.5-7.8,14.1-7.8h1.4V41
					c0-2.7-2.1-4.2-5.1-4.2c-2.3,0-4.5,0.9-6,2.3l-2.9-2.9c2.5-2.5,6-3.6,9.5-3.6c9.5,0,9.5,6.9,9.5,10.1v12.9h-5V52.5z M78.2,45.5
					H77c-3.1,0-8.4,0.2-8.4,3.4c0,2,2.1,2.9,3.9,2.9c3.8,0,5.6-2,5.6-5.1V45.5z"/>
				<path class="st11" d="M94,36.3L94,36.3c1-1.9,3.2-3.7,6.7-3.7c6,0,8.1,4.2,8.1,8.8v14.1h-5.6V44.2c0-2.5-0.2-6.6-4.1-6.6
					c-3.7,0-5.1,2.7-5.1,5.7v12.2h-5.6V20.3H94V36.3z"/>
			</g>
		</g>
		<g>
			<path class="st11" d="M166.8,43.3c0,5.5-2.2,13-12,13c-9.8,0-12-7.6-12-13V22.8h3.3V43c0,9.4,6.1,10.4,8.6,10.4s8.6-0.9,8.6-10.4
				V22.8h3.3V43.3z"/>
			<path class="st11" d="M189.4,49.4l11.1-26.6h5.1v32.7h-3.3V27.2h-0.1l-11.8,28.3h-1.8l-11.8-28.3h-0.1v28.3h-3.3V22.8h5.1
				L189.4,49.4z"/>
			<path class="st11" d="M215.9,52.5h15.3v3.1h-18.6V22.8h3.3V52.5z"/>
		</g>
	</g>
	<path class="st12" d="M238.3,33.6h3.1v3.6h0.1c2-2.9,5.5-4.2,8.4-4.2c6.8,0,11.5,4.9,11.5,11.4s-4.8,11.4-11.5,11.4
		c-2.9,0-6.4-1.2-8.4-4.2h-0.1v16.9h-3.1V33.6z M249.8,35.8c-5,0-8.6,3.7-8.6,8.6c0,4.9,3.7,8.6,8.6,8.6c5,0,8.2-3.7,8.2-8.6
		C258,39.5,254.9,35.8,249.8,35.8z"/>
	<path class="st12" d="M277.4,41.9v-0.6c0-3.7-1.8-5.6-5.5-5.6c-2.5,0-4.8,0.9-6.6,2.5l-1.8-2.2c2-2,5.1-3.1,9.2-3.1
		c4.3,0,7.9,2.4,7.9,7.7v9.7c0,1.7,0.2,3.7,0.4,4.9h-3c-0.2-1.1-0.3-2.4-0.3-3.5h-0.1c-1.8,2.9-4.2,4.1-7.6,4.1
		c-3.8,0-7.4-2.1-7.4-6.3c0-7,8.3-7.5,13.5-7.5H277.4z M275.8,44.4c-3.1,0-10.1,0.2-10.1,4.6c0,2.9,2.6,4,5.1,4c4.4,0,6.6-3.1,6.6-7
		v-1.6H275.8z"/>
	<path class="st12" d="M306.3,55.1h-3.1v-3.6h-0.1c-2,2.9-5.5,4.2-8.4,4.2c-6.8,0-11.5-4.9-11.5-11.4S288,33,294.8,33
		c2.9,0,6.4,1.2,8.4,4.2h0.1V20.2h3.1V55.1z M294.8,52.9c5,0,8.6-3.7,8.6-8.6c0-4.9-3.7-8.6-8.6-8.6c-5,0-8.2,3.7-8.2,8.6
		C286.6,49.2,289.7,52.9,294.8,52.9z"/>
</g>
</svg>
