<svg id="Layer_1" data-name="Layer 1" xmlns="http://www.w3.org/2000/svg" viewBox="0 0 175.75 39.58"><defs><style>.cls-1{fill:#230000;}.cls-1,.cls-2{fill-rule:evenodd;}.cls-2{fill:#939598;}</style></defs><title>MIT-logo</title><polygon class="cls-1" points="38.3 7.55 38.3 0.13 46.18 0.13 46.18 7.55 38.3 7.55 38.3 7.55"/><polygon class="cls-1" points="51.13 37.24 51.13 11.88 58.96 11.88 58.96 37.24 51.13 37.24 51.13 37.24"/><polygon class="cls-1" points="0 0.13 7.83 0.13 7.83 37.24 0 37.24 0 0.13 0 0.13"/><polygon class="cls-1" points="25.57 37.24 25.57 0.13 33.4 0.13 33.4 37.24 25.57 37.24 25.57 37.24"/><polygon class="cls-1" points="12.78 25.49 12.78 0.13 20.62 0.13 20.62 25.49 12.78 25.49 12.78 25.49"/><polygon class="cls-1" points="51.08 7.55 51.08 0.13 71.75 0.13 71.75 7.55 51.08 7.55 51.08 7.55"/><path class="cls-1" d="M97.09,0V8.95H95l.14-6.37,0-.9L95,2c-.11.51-.13.57-.23.95l-1.68,6H91.21L89.59,3.2l-.39-1.59c0,.71,0,.86.08,1.71l.11,5.63H87.22V0h3.26l1.37,5,.32,1.43c.13-.62.14-.68.24-1.1L93.84,0Z"/><path class="cls-1" d="M98.8,4.21a1.84,1.84,0,0,1,.7-1.47,3.4,3.4,0,0,1,2.16-.58c.81,0,2.77.19,2.77,1.9V7.91c0,.71,0,.81.19,1h-1.91V8.34a3.11,3.11,0,0,1-2,.78,2,2,0,0,1-2.16-2,2.14,2.14,0,0,1,1.39-1.9,17,17,0,0,1,2.61-.61V4.25c0-.3-.05-.81-.75-.81-.86,0-1,.53-1,.77Zm2.47,2c-.33.13-.84.32-.84.82a.71.71,0,0,0,.73.67,1.28,1.28,0,0,0,.67-.22c.65-.41.67-1,.68-1.7l-1.25.42Z"/><path class="cls-1" d="M106.54,6.72a2.82,2.82,0,0,0,1.92.91c.47,0,1.18-.15,1.18-.65a.4.4,0,0,0-.25-.38,4.21,4.21,0,0,0-1.13-.25,7.46,7.46,0,0,1-.89-.2,2.48,2.48,0,0,1-1.1-.57,1.79,1.79,0,0,1-.49-1.24c0-1.09.94-2.21,2.78-2.21a4.84,4.84,0,0,1,2.95,1l-1.2,1.11a2.77,2.77,0,0,0-1.66-.66c-.76,0-.94.3-.94.49,0,.38.42.46,1,.57,1.33.24,2.87.59,2.87,2.16s-1.57,2.32-3.13,2.32a4.35,4.35,0,0,1-3.2-1.28l1.23-1.11Z"/><path class="cls-1" d="M113.14,6.72a2.82,2.82,0,0,0,1.92.91c.47,0,1.18-.15,1.18-.65a.4.4,0,0,0-.25-.38,4.2,4.2,0,0,0-1.13-.25,7.45,7.45,0,0,1-.89-.2,2.48,2.48,0,0,1-1.1-.57,1.78,1.78,0,0,1-.49-1.24c0-1.09.94-2.21,2.78-2.21a4.84,4.84,0,0,1,2.95,1l-1.2,1.11a2.77,2.77,0,0,0-1.66-.66c-.76,0-.94.3-.94.49,0,.38.42.46,1,.57,1.33.24,2.87.59,2.87,2.16s-1.57,2.32-3.13,2.32a4.35,4.35,0,0,1-3.2-1.28l1.23-1.11Z"/><path class="cls-1" d="M119.37,4.21a1.84,1.84,0,0,1,.7-1.47,3.4,3.4,0,0,1,2.16-.58c.81,0,2.77.19,2.77,1.9V7.91c0,.71,0,.81.19,1h-1.91V8.34a3.11,3.11,0,0,1-2,.78,2,2,0,0,1-2.16-2,2.13,2.13,0,0,1,1.39-1.9,17,17,0,0,1,2.61-.61V4.25c0-.3-.05-.81-.75-.81-.86,0-1,.53-1,.77Zm2.47,2c-.33.13-.84.32-.84.82a.71.71,0,0,0,.73.67,1.28,1.28,0,0,0,.67-.22c.64-.41.67-1,.68-1.7l-1.25.42Z"/><path class="cls-1" d="M132.54,7.39a3.77,3.77,0,0,1-1,1.18,3.28,3.28,0,0,1-1.9.59,3.19,3.19,0,0,1-3.28-3.45,3.23,3.23,0,0,1,3.32-3.54,3.16,3.16,0,0,1,2.82,1.58L131,4.57a1.61,1.61,0,0,0-.56-.7,1.3,1.3,0,0,0-.73-.23c-1,0-1.4,1.2-1.4,2s.43,2,1.47,2a1.3,1.3,0,0,0,1-.46,1.4,1.4,0,0,0,.29-.53l1.47.76Z"/><path class="cls-1" d="M134.8,0V3a2.53,2.53,0,0,1,1.9-.87,2.21,2.21,0,0,1,1.4.47,2.29,2.29,0,0,1,.68,2V8.95h-1.94V5.49a3.21,3.21,0,0,0-.09-1,.92.92,0,0,0-.91-.66,1,1,0,0,0-.8.38,2.56,2.56,0,0,0-.25,1.45V8.95h-1.95V0Z"/><path class="cls-1" d="M144.44,2.34h1.95V8.95h-1.95V8.31a1.8,1.8,0,0,1-.66.52,2.73,2.73,0,0,1-1.25.3,2,2,0,0,1-1.68-.7,2.89,2.89,0,0,1-.4-1.95V2.34h2v4.1a1.31,1.31,0,0,0,.15.78,1,1,0,0,0,.77.33,1.31,1.31,0,0,0,.67-.16,1,1,0,0,0,.44-.94V2.34Z"/><path class="cls-1" d="M148.48,6.72a2.82,2.82,0,0,0,1.92.91c.47,0,1.18-.15,1.18-.65a.4.4,0,0,0-.25-.38,4.19,4.19,0,0,0-1.13-.25,7.46,7.46,0,0,1-.89-.2,2.48,2.48,0,0,1-1.1-.57,1.78,1.78,0,0,1-.49-1.24c0-1.09.94-2.21,2.78-2.21a4.84,4.84,0,0,1,2.95,1l-1.2,1.11a2.77,2.77,0,0,0-1.66-.66c-.76,0-.94.3-.94.49,0,.38.42.46,1.05.57,1.33.24,2.87.59,2.87,2.16S152,9.11,150.45,9.11a4.35,4.35,0,0,1-3.2-1.28l1.23-1.11Z"/><path class="cls-1" d="M160.9,7.26a5.15,5.15,0,0,1-.8,1,3.63,3.63,0,0,1-2.49.94,3.16,3.16,0,0,1-3.34-3.42c0-1.59.78-3.64,3.39-3.64a3.2,3.2,0,0,1,2.38.95A4.42,4.42,0,0,1,161,6h-4.72a1.49,1.49,0,0,0,1.51,1.65,1.75,1.75,0,0,0,1.67-1.16l1.47.75ZM159,4.82a1.57,1.57,0,0,0-.37-.94,1.37,1.37,0,0,0-.95-.37,1.34,1.34,0,0,0-1,.43,1.73,1.73,0,0,0-.39.87Z"/><path class="cls-1" d="M162.35.43h1.94V2.49h1.28V3.68h-1.29v3c0,.41,0,.75.51.75l.7,0V8.9a6.16,6.16,0,0,1-1,.1,2,2,0,0,1-1.82-.65,2.55,2.55,0,0,1-.28-1.49V3.67h-1V2.48h1V.43Z"/><path class="cls-1" d="M166.07.43H168V2.49h1.28V3.68H168v3c0,.41,0,.75.51.75l.7,0V8.9a6.17,6.17,0,0,1-1,.1,2,2,0,0,1-1.82-.65,2.56,2.56,0,0,1-.28-1.49V3.67h-1V2.48h1V.43Z"/><path class="cls-1" d="M170.65,6.72a2.82,2.82,0,0,0,1.92.91c.47,0,1.18-.15,1.18-.65a.4.4,0,0,0-.25-.38,4.2,4.2,0,0,0-1.13-.25,7.4,7.4,0,0,1-.89-.2,2.48,2.48,0,0,1-1.1-.57,1.78,1.78,0,0,1-.49-1.24c0-1.09.94-2.21,2.78-2.21a4.84,4.84,0,0,1,2.95,1l-1.2,1.11a2.77,2.77,0,0,0-1.66-.66c-.76,0-.94.3-.94.49,0,.38.42.46,1,.57,1.33.24,2.87.59,2.87,2.16s-1.57,2.32-3.13,2.32a4.36,4.36,0,0,1-3.2-1.28l1.23-1.11Z"/><polygon class="cls-1" points="89.53 14.08 89.53 23.01 87.3 23.01 87.3 14.08 89.53 14.08 89.53 14.08"/><path class="cls-1" d="M93.26,17a1.9,1.9,0,0,1,.66-.52,3.21,3.21,0,0,1,1.2-.24,2.51,2.51,0,0,1,1.18.27c.7.37.87,1,.87,2V23H95.23V19.29a2.64,2.64,0,0,0-.09-1,.89.89,0,0,0-.87-.51c-1,0-1,.82-1,1.65V23H91.3V16.42h2V17Z"/><path class="cls-1" d="M99.26,20.79a2.82,2.82,0,0,0,1.92.91c.47,0,1.18-.15,1.18-.65a.4.4,0,0,0-.25-.38,4.21,4.21,0,0,0-1.13-.25,7.59,7.59,0,0,1-.89-.2,2.48,2.48,0,0,1-1.1-.57,1.78,1.78,0,0,1-.49-1.24c0-1.09.94-2.21,2.78-2.21a4.84,4.84,0,0,1,2.95,1L103,18.29a2.77,2.77,0,0,0-1.66-.66c-.76,0-.94.3-.94.49,0,.38.42.46,1.05.57,1.33.24,2.87.59,2.87,2.16s-1.57,2.32-3.13,2.32A4.35,4.35,0,0,1,98,21.9l1.23-1.11Z"/><path class="cls-1" d="M105.75,14.5h1.94v2.06H109v1.19h-1.29v3c0,.4,0,.75.51.75l.7,0V23a6.28,6.28,0,0,1-1,.1,2,2,0,0,1-1.82-.65,2.55,2.55,0,0,1-.28-1.49V17.74h-1V16.55h1V14.5Z"/><path class="cls-1" d="M110,14.07h1.92v1.51H110V14.07Zm0,2.33h1.92V23H110V16.39Z"/><path class="cls-1" d="M113.92,14.5h1.94v2.06h1.28v1.19h-1.29v3c0,.4,0,.75.51.75l.7,0V23a6.27,6.27,0,0,1-1,.1,2,2,0,0,1-1.82-.65,2.56,2.56,0,0,1-.28-1.49V17.74h-1V16.55h1V14.5Z"/><path class="cls-1" d="M122.11,16.41h1.95V23h-1.95v-.63a1.79,1.79,0,0,1-.66.52,2.72,2.72,0,0,1-1.25.3,2,2,0,0,1-1.68-.7,2.89,2.89,0,0,1-.4-1.95V16.41h2v4.1a1.31,1.31,0,0,0,.15.78,1,1,0,0,0,.77.33,1.3,1.3,0,0,0,.67-.16,1,1,0,0,0,.44-.94V16.41Z"/><path class="cls-1" d="M126,14.5H128v2.06h1.28v1.19H128v3c0,.4,0,.75.51.75l.7,0V23a6.26,6.26,0,0,1-1,.1,2,2,0,0,1-1.82-.65,2.55,2.55,0,0,1-.28-1.49V17.74h-1V16.55h1V14.5Z"/><path class="cls-1" d="M136.46,21.33a5.17,5.17,0,0,1-.8,1,3.63,3.63,0,0,1-2.49.94,3.16,3.16,0,0,1-3.34-3.42c0-1.59.79-3.64,3.39-3.64a3.21,3.21,0,0,1,2.38.95,4.43,4.43,0,0,1,.94,3h-4.72a1.49,1.49,0,0,0,1.51,1.65A1.75,1.75,0,0,0,135,20.58l1.47.75Zm-1.94-2.44a1.58,1.58,0,0,0-.37-.94,1.37,1.37,0,0,0-.95-.37,1.34,1.34,0,0,0-1,.43,1.73,1.73,0,0,0-.39.87Z"/><path class="cls-1" d="M147.74,19.7a3.55,3.55,0,0,1-7.1,0,3.55,3.55,0,0,1,7.1,0Zm-4.81-1.3a2.4,2.4,0,0,0-.33,1.29c0,1,.51,2,1.6,2s1.57-.85,1.57-1.89a2.23,2.23,0,0,0-.55-1.66,1.41,1.41,0,0,0-1.14-.37,1.31,1.31,0,0,0-1.15.65Z"/><path class="cls-1" d="M149.32,15.75a1.91,1.91,0,0,1,.28-1.13,2,2,0,0,1,1.7-.67,8.78,8.78,0,0,1,1.16.11v1.45H152c-.73,0-.77.15-.76,1h1.3v1.19h-1.29V23h-1.94V17.75h-1V16.56h1.05v-.81Z"/><polygon class="cls-1" points="84.85 28.27 91.73 28.27 91.73 30.04 89.42 30.04 89.42 37.22 87.18 37.22 87.18 30.04 84.85 30.04 84.85 28.27 84.85 28.27"/><path class="cls-1" d="M97.88,35.53a5.18,5.18,0,0,1-.8,1,3.63,3.63,0,0,1-2.49.94A3.16,3.16,0,0,1,91.24,34c0-1.6.78-3.65,3.39-3.65a3.21,3.21,0,0,1,2.38.95,4.42,4.42,0,0,1,.94,3H93.23A1.49,1.49,0,0,0,94.74,36a1.75,1.75,0,0,0,1.67-1.16l1.47.75Zm-1.94-2.44a1.57,1.57,0,0,0-.37-.94,1.37,1.37,0,0,0-.95-.37,1.34,1.34,0,0,0-1,.43,1.74,1.74,0,0,0-.39.87Z"/><path class="cls-1" d="M104.85,35.66a3.76,3.76,0,0,1-1,1.18,3.29,3.29,0,0,1-1.9.59A3.19,3.19,0,0,1,98.63,34,3.23,3.23,0,0,1,102,30.43,3.16,3.16,0,0,1,104.77,32l-1.44.82a1.61,1.61,0,0,0-.56-.7,1.3,1.3,0,0,0-.73-.23c-1.05,0-1.4,1.2-1.4,2s.43,2,1.47,2a1.3,1.3,0,0,0,1-.45,1.4,1.4,0,0,0,.29-.53l1.47.76Z"/><path class="cls-1" d="M107.1,28.27v3a2.53,2.53,0,0,1,1.9-.87,2.21,2.21,0,0,1,1.4.47,2.29,2.29,0,0,1,.68,2v4.34h-1.94V33.76a3.2,3.2,0,0,0-.09-1,.92.92,0,0,0-.91-.66,1,1,0,0,0-.8.38,2.55,2.55,0,0,0-.25,1.46v3.29h-1.95V28.27Z"/><path class="cls-1" d="M114.79,31.21a1.9,1.9,0,0,1,.66-.52,3.22,3.22,0,0,1,1.2-.24,2.51,2.51,0,0,1,1.18.27c.7.37.87,1,.87,2v4.52h-1.94V33.5a2.64,2.64,0,0,0-.09-1,.89.89,0,0,0-.87-.51c-1,0-1,.82-1,1.65v3.57h-1.95V30.62h2v.58Z"/><path class="cls-1" d="M127.09,33.9a3.55,3.55,0,0,1-7.1,0,3.55,3.55,0,0,1,7.1,0Zm-4.81-1.3a2.39,2.39,0,0,0-.33,1.29c0,1.05.51,2,1.6,2s1.57-.85,1.57-1.89a2.24,2.24,0,0,0-.54-1.66,1.41,1.41,0,0,0-1.14-.37,1.31,1.31,0,0,0-1.15.65Z"/><polygon class="cls-1" points="130.3 28.28 130.3 37.22 128.35 37.22 128.35 28.28 130.3 28.28 130.3 28.28"/><path class="cls-1" d="M138.69,33.9a3.55,3.55,0,0,1-7.1,0,3.55,3.55,0,0,1,7.1,0Zm-4.81-1.3a2.39,2.39,0,0,0-.33,1.29c0,1.05.51,2,1.6,2s1.57-.85,1.57-1.89a2.23,2.23,0,0,0-.54-1.66A1.41,1.41,0,0,0,135,32a1.31,1.31,0,0,0-1.15.65Z"/><path class="cls-1" d="M144,36.34a2.81,2.81,0,0,1-1.75.56,2.69,2.69,0,0,1-1.51-.43,3.06,3.06,0,0,1-1.23-2.73c0-1.33.62-3.24,2.81-3.24a2.3,2.3,0,0,1,1.77.72V30.6h1.82V37a2.18,2.18,0,0,1-1,2.13,4.75,4.75,0,0,1-2.25.51,3.6,3.6,0,0,1-2.53-.82,2,2,0,0,1-.51-1.54h2a1,1,0,0,0,.57.95,1.33,1.33,0,0,0,.62.13c1.18,0,1.18-.7,1.18-1.24v-.71Zm-2.47-2.62c0,.56,0,1.71,1.24,1.71,1,0,1.21-.77,1.21-1.71a2.74,2.74,0,0,0-.24-1.29,1.16,1.16,0,0,0-1.06-.48c-.92,0-1.15.84-1.15,1.77Z"/><path class="cls-1" d="M153.07,30.61l-2.33,7.14a3.27,3.27,0,0,1-.62,1.2,1.69,1.69,0,0,1-1.4.53h-1.4V37.94H148c.32,0,.81,0,.81-.48a1.79,1.79,0,0,0-.09-.47l-2-6.38h2.08l1.09,4.73L151,30.61Z"/><polygon class="cls-2" points="38.36 37.2 38.36 11.84 46.2 11.84 46.2 37.2 38.36 37.2 38.36 37.2"/></svg>