<svg id="Layer_1" data-name="Layer 1" xmlns="http://www.w3.org/2000/svg" xmlns:xlink="http://www.w3.org/1999/xlink" viewBox="0 0 240.7 241.44"><defs><style>.cls-1{fill:#010101;}.cls-2{fill:url(#linear-gradient);}.cls-3{fill:url(#linear-gradient-2);}.cls-4{fill:url(#linear-gradient-3);}.cls-5{fill:url(#linear-gradient-4);}.cls-6{fill:url(#linear-gradient-5);}.cls-7{fill:url(#linear-gradient-6);}</style><linearGradient id="linear-gradient" x1="170.31" y1="-279.4" x2="170.31" y2="-211.94" gradientTransform="matrix(2.3, 0, 0, -2.3, -375.64, -486.74)" gradientUnits="userSpaceOnUse"><stop offset="0" stop-color="#231f20"/><stop offset="0.13" stop-color="#393637"/><stop offset="0.41" stop-color="#737071"/><stop offset="0.8" stop-color="#cecdcd"/><stop offset="1" stop-color="#fff"/></linearGradient><linearGradient id="linear-gradient-2" x1="112.62" y1="-279.4" x2="112.62" y2="-211.94" gradientTransform="matrix(2.3, 0, 0, -2.3, -201.11, -486.74)" xlink:href="#linear-gradient"/><linearGradient id="linear-gradient-3" x1="55.22" y1="-279.4" x2="55.22" y2="-211.94" gradientTransform="matrix(2.3, 0, 0, -2.3, -27.43, -486.74)" xlink:href="#linear-gradient"/><linearGradient id="linear-gradient-4" x1="-2.75" y1="-279.4" x2="-2.75" y2="-211.94" gradientTransform="matrix(2.3, 0, 0, -2.3, 147.97, -486.74)" xlink:href="#linear-gradient"/><linearGradient id="linear-gradient-5" x1="-59.68" y1="-279.4" x2="-59.68" y2="-211.94" gradientTransform="matrix(2.3, 0, 0, -2.3, 320.21, -486.74)" xlink:href="#linear-gradient"/><linearGradient id="linear-gradient-6" x1="-117.37" y1="-279.4" x2="-117.37" y2="-211.94" gradientTransform="matrix(2.3, 0, 0, -2.3, 494.75, -486.74)" xlink:href="#linear-gradient"/></defs><title>nyse-logo</title><g id="layer1"><path id="path2998" class="cls-1" d="M13.83,240.7H0V171H13.83l28.22,44.33V171H55.89V240.7H43L13.83,194.84Z"/><path id="path3000" class="cls-1" d="M65.85,171H82.72L98.21,196.5,113.78,171h17.16l-25.8,39.64V240.7H91.3V210.27Z"/><path id="path3002" class="cls-1" d="M173.83,190.65l7.2-11.28s-8.25-9-23.44-9c-15.41,0-22.53,10.38-22.53,20.65s9.93,17.15,16.63,19.79c10.27,3.62,17.53,5.4,17.53,10.56,0,3.92-4,6.85-9.57,6.85-10.49,0-18.79-8.56-18.79-8.56l-7.51,11.7a39.24,39.24,0,0,0,26.06,10.06c12.43,0,23.51-8.66,23.51-21.45,0-11.52-9.79-17.87-18.34-20.3-7.41-2.16-15.23-4.23-15.23-9.46,0-3.42,2.86-6.57,7.86-6.57,8.48,0,16.63,7,16.63,7Z"/><path id="path3004" class="cls-1" d="M195.32,240.7V171H240.7v12.17H209.16v16.6h27.11v12.17H209.16v16.6H240.7V240.7Z"/><path id="path3006" class="cls-2" d="M0,154.93V0H31V154.93Z"/><path id="path3034" class="cls-3" d="M42.05,154.93V0H73V154.93Z"/><path id="path3038" class="cls-4" d="M83.9,154.93V0h31V154.93Z"/><path id="path3042" class="cls-5" d="M126.16,154.93V0h31V154.93Z"/><path id="path3046" class="cls-6" d="M167.66,154.93V0h31V154.93Z"/><path id="path3050" class="cls-7" d="M209.71,154.93V0h31V154.93Z"/></g></svg>