<?xml version="1.0" encoding="utf-8"?>
<!-- Generator: Adobe Illustrator 21.0.0, SVG Export Plug-In . SVG Version: 6.00 Build 0)  -->
<svg version="1.1" id="Layer_1" xmlns="http://www.w3.org/2000/svg" xmlns:xlink="http://www.w3.org/1999/xlink" x="0px" y="0px"
	 viewBox="0 0 496.7 221.2" style="enable-background:new 0 0 496.7 221.2;" xml:space="preserve">
<g>
	<path d="M496.7,100.5c-7.8,1.2-15,2.2-22.5,3.3c-0.3-1.5-0.6-3.1-0.8-4.4c-5.2,1.6-10.3,4-15.5,4.5c-19.9,1.9-33.6-13-31.9-34
		c1.9-23.3,18-36.2,41.2-33c1.8,0.2,3.6,0.4,6.7,0.7c-0.5-9.3-0.7-18.2-1.5-27c-0.1-1.3-2.8-2.4-4.4-3.4c-0.9-0.6-2.1-0.7-3.2-1
		c0-0.5,0.1-0.9,0.1-1.4c7.5-1.2,15-2.4,22.6-3.6c0,8.1,0,15.8,0,23.6c0,20.3,0,40.6,0,60.9c0,5.7-0.3,11.7,7.8,12.5
		C495.8,98.3,496.2,99.5,496.7,100.5z M473.6,70.8c0-6.3,0.2-12.7-0.1-19c-0.1-1.7-1.1-4-2.4-4.9c-10-6.9-24.5-2.4-27.6,9.3
		c-1.9,7.2-2.4,15.3-1.3,22.6c2.1,13.3,14.4,19.7,27.2,15.7c2.9-0.9,4.4-2.4,4.2-5.7C473.4,82.7,473.6,76.7,473.6,70.8z"/>
	<path d="M249.8,102.6c-10.8,0-21.3,0-32.9,0c1.4-1.1,2.2-2,3.1-2.2c3.9-1,6.2-3.5,6.2-7.4c0.2-12,0.9-24-0.2-35.9
		c-0.9-10.8-15.6-15.9-24.6-9.4c-0.9,0.6-1.6,2.2-1.6,3.3c0,13.8,0.2,27.6,0.4,41.5c0,4.2,1.8,7,6.1,8c0.8,0.2,1.5,0.8,2,2.2
		c-10.5,0-21,0-32.4,0c1.2-1,1.7-1.9,2.4-2.1c5.3-1,7.1-4.8,7.1-9.5c0.2-13.3,0.1-26.7,0.1-40c0-4-2-6.5-6.3-7
		c-1-0.1-1.9-1.4-3.2-2.5c8.4-1.3,15.6-2.5,23-3.7c0.2,1,0.5,2.4,0.8,3.9c4.6-1.6,9.1-3.6,13.9-4.6c15.6-3.2,25.9,4.5,26.9,20.3
		c0.7,10.5,0.5,21,0.6,31.5c0,5.7,0.7,10.8,7.7,11.9C249.2,100.9,249.4,101.6,249.8,102.6z"/>
	<path d="M52,11c0,6.5,0,12.5,0,18.5c-0.4,0.1-0.8,0.3-1.3,0.4c-0.6-1.3-1.3-2.5-1.6-3.8c-1-4.3-3.7-7.4-8-7.9
		c-5.4-0.7-11-1.4-16.3-0.6c-9.7,1.6-13.2,13.7-6.6,21.2c1.7,2,3.9,3.6,6.1,5.1c5.7,4,11.6,7.9,17.4,11.7
		c10.1,6.6,13.4,16.1,11.7,27.6c-1.5,10.1-8.9,17.9-21.3,19.3c-9.3,1-18.8-0.5-28.2-1.4c-1.3-0.1-3.2-2.6-3.4-4.2
		C-0.1,93.1,0,89,0,85c0-1.1,0.9-2.1,1.3-3.2c0.7,0.9,1.9,1.6,2.1,2.6c1,6.1,4.9,9.5,10.5,10.6c4.2,0.8,8.6,0.9,12.8,0.6
		c6.1-0.4,11.1-3.1,12.7-9.5c1.6-6.5,0.7-12.8-5-17.2c-6.5-4.9-13.3-9.4-20-14.1C8.1,50.4,3.3,45,2.1,36.9
		c-1.6-11.1,4.3-21.7,15-25.3C28.6,7.7,40.4,9.6,52,11z"/>
	<path d="M301.6,71.6c-0.1-24.9,17.4-39.2,41.8-34.1c14,2.9,21.9,13.7,22.6,30.6c1,25.5-18,41.2-42.5,35.2
		C309.3,99.8,301.6,88.6,301.6,71.6z M351.8,70.7c-1.5-5.9-2.4-12.1-4.6-17.9c-2.2-5.9-7.1-9.1-13.6-9.1c-6.7,0-11.5,3.4-13.9,9.5
		c-4.7,11.6-4.6,23.3,0.3,34.9c2.6,6,7.3,9.4,14,9.4c6.7-0.1,11.5-3.6,13.7-9.7C349.6,82.3,350.4,76.7,351.8,70.7z"/>
	<path d="M170.2,95.1c-6,10.3-16.3,11.4-23.3,2.5c-5.8,4.6-12.3,7.1-19.8,5.9c-9.1-1.4-13.7-5.9-15-14.7
		c-1.2-8.1,2.5-15.5,10.1-18.7c6.4-2.7,13.1-4.8,19.8-6.8c3.6-1.1,5.2-2.7,4.8-6.6c-0.5-5-2.3-9.1-7.2-11
		c-5.5-2.2-10.8-1.4-15.5,2.3c-0.9,0.7-1.5,1.8-2.4,2.5c-0.8,0.6-1.8,0.8-2.7,1.1c-0.1-1.1-0.7-2.5-0.3-3.3
		c3.2-7,9.1-10.5,16.4-11.5c4-0.5,8.3-0.2,12.4,0.6c8.1,1.7,12.6,6.6,13,14.8c0.5,10,0.2,19.9,0.2,29.9c0,2.3-0.2,4.7,0.1,7
		c0.5,3.9,1.9,6.9,6.8,5.4C168.3,94.3,169.3,94.9,170.2,95.1z M146.7,69c-5.9,2.5-10.9,4.1-15.5,6.6c-4.4,2.4-5.8,7.1-4.6,11.6
		c0.8,2.7,3.5,6.6,5.7,6.9c4.3,0.6,8.9-0.9,13.3-1.8c0.5-0.1,1-1.7,1-2.6C146.7,83.3,146.7,76.9,146.7,69z"/>
	<path d="M304.8,15.1c-4.3-2.9-7.6-6-11.5-7.4c-5-1.7-10.1,1.4-10.8,6.8c-1,7.6-1,15.4-1.4,23.8c5.3,0,9.8,0,14,0
		c1.7,7.4,1.4,7.7-5.3,7.7c-2.5,0-5,0-7.9,0c-0.1,1.7-0.3,3.1-0.3,4.5c0,12.7-0.1,25.3,0,38c0.1,9.2,0.7,9.8,9.8,11.8
		c0.7,0.2,1.4,0.6,1.9,2c-11.7,0-23.3,0-35.1,0c0.2-0.6,0.3-1.4,0.5-1.4c6.8-1.2,8.7-5.7,8.6-11.9c-0.1-14.1,0-28.2,0-42.8
		c-2.7,0-5.1,0-7.6,0c-0.3-0.4-0.7-0.8-1-1.2c1-1.2,1.7-3,2.9-3.4c4.8-1.7,6.5-4.8,6.2-9.9c-0.2-4.1,0.2-8.3,1.1-12.4
		c3.5-16.9,25.9-25.1,39.8-14.8c0.9,0.7,1.5,3,1,3.9C308.1,11.1,306,13.5,304.8,15.1z"/>
	<path d="M83.2,38.3c7.4,0,14.3,0,21.6,0c0,2.7,0,4.9,0,7.7c-7.2,0-14.3,0-22,0c0,7.5-0.1,14.5,0,21.5c0.1,6,0,12,0.5,18
		c0.8,9.2,5.2,12.5,14.4,11.1c2.1-0.3,4.1-1,7-0.7c-0.9,1.3-1.6,2.9-2.8,3.7c-7.9,5.5-16.5,6.2-25.1,2.3c-5.9-2.7-8-8.3-8.1-14.4
		c-0.2-12-0.1-24-0.1-36c0-1.6,0-3.3,0-5.2c-3.1-0.2-5.8-0.4-8.5-0.6c-0.3-0.5-0.5-1-0.8-1.6C69.8,40.3,75.8,32.2,80.8,23
		c0.5,0.2,1.1,0.4,1.6,0.6C82.7,28.4,82.9,33.1,83.2,38.3z"/>
	<path d="M395.3,38c0.3,1.4,0.6,2.8,0.7,3.3c5.7-1.3,11-2.6,16.4-3.7c1.2-0.3,2.7,0.1,3.9,0.5c6.3,1.7,7,3.4,4,9
		c-0.5,0.9-1,1.7-1.4,2.6c-1.5,3.4-2.9,4.8-6.3,1.3c-2-2-5.5-3.2-8.4-3.5c-6.2-0.7-7.9,1.2-7.9,7.5c0,11.8,0,23.6,0.2,35.4
		c0.1,7.3,0.9,8,8,9.6c1.2,0.3,2.3,0.9,3.4,1.4c-0.1,0.4-0.2,0.9-0.3,1.3c-11.5,0-22.9,0-35.6,0c1.5-1.2,2.2-2.2,3.1-2.4
		c4.6-1.2,6.6-4.3,6.7-8.8c0.1-13.6,0.1-27.3,0.1-40.9c0-4.1-2.4-5.8-6.2-6.5c-0.9-0.1-1.6-1.4-2.5-2.2c0.9-0.5,1.8-1.3,2.7-1.4
		C382.1,39.6,388.5,38.8,395.3,38z"/>
	<path d="M53.3,139.7c6.4,0,12.8,0,19.2,0c-6.3,2.4-5.1,7.9-5.2,12.6c-0.1,9.2-0.1,18.3,0.1,27.5c0.2,9.1,4.3,13.3,12.5,13.7
		c10.7,0.5,15.3-2.6,16-12.5c0.7-11.1,0.7-22.3,0.3-33.4c-0.1-2.6-2.7-5.2-4.2-7.7c5,0,11,0,16.9,0c-5.9,2.5-5.4,7.6-5.4,12.5
		c-0.1,8.7,0.1,17.3-0.1,26c-0.3,13-7,19.5-19.9,19.9c-1.2,0-2.3,0.1-3.5,0c-15-0.1-20.9-5.4-21.7-20.5c-0.5-9.1-0.2-18.3-0.2-27.5
		C58.1,146.1,58.2,141.9,53.3,139.7z"/>
	<path d="M398.6,156.7c5.5,0,11.4,0,18.7,0c-7.8,3.3-4.4,7.9-2.9,12.1c2.1,5.9,4.4,11.7,7.8,17.7c2.6-8.1,5.4-16.1,7.6-24.4
		c0.4-1.4-2-3.5-3.3-5.4c4.8,0,9.6,0,14.4,0c-7.9,10.8-10.3,24-15.4,36c-2.8,6.6-4.8,13.5-7.9,19.9c-4.4,9.2-16.1,11.4-23.7,4.6
		c1.3-1.6,2.6-3.2,3.9-4.8c7.7,5.4,11.8,4.2,15.9-4c2.9-5.7,3.4-10.8,0.6-16.9c-4-8.5-6.9-17.6-10.5-26.4
		C402.5,162.3,400.4,159.7,398.6,156.7z"/>
	<path d="M156.9,197.5c-6.3,0-12.6,0-20.4,0c7.4-2.8,6.3-8.2,6.4-13.1c0-4.8,0.2-9.7-0.1-14.5c-0.5-7.9-8.7-12-15.4-7.7
		c-1,0.6-1.7,2.4-1.7,3.7c-0.1,7.7-0.3,15.3,0.1,23c0.2,2.8,2,5.6,3.1,8.3c-4.9,0-11.2,0-19,0c6.9-1.9,6.9-6.5,6.9-11.2
		c-0.1-6.2-0.1-12.3,0-18.5c0-3.9-0.3-7.5-6.1-7.7c6.3-3.2,14.1-3.6,15.2-1.9c4.7-0.9,9-2.3,13.4-2.3c7.5,0,12,4.7,12.3,12.3
		c0.3,6.8,0.1,13.7,0.3,20.5C151.9,192.1,152.2,195.9,156.9,197.5z"/>
	<path d="M263.1,175c-8.5,0-16.8,0-25,0c-1.5,7.1,0.9,14.4,6.4,15.9c5.4,1.5,11.4,0.9,17.5,1.2c-0.2-0.6,0.1-0.2,0-0.1
		c-5.3,6.6-12.5,7-20,5.6c-7.2-1.3-11.9-5.9-12.8-12.9c-0.7-5.6-0.3-11.7,1.3-17.1c2.7-9.1,11.5-13.6,20.5-11.7
		C259.7,157.7,263.6,163.6,263.1,175z M237.9,170.4c5.2,0,10.4,0,15.5,0c0.6-6.9-1.9-10.4-7.4-10.5
		C240.4,159.8,237.3,163.6,237.9,170.4z"/>
	<path d="M226.9,156.9c-2,3-4.1,5.4-5.4,8.1c-4.5,9.8-8.7,19.8-13.3,29.6c-0.7,1.4-2.3,2.4-3.5,3.6c-1.1-1.2-2.6-2.3-3.2-3.7
		c-4.1-9.8-7.8-19.8-11.9-29.6c-1.2-2.8-3.2-5.2-4.9-7.9c5.3,0,11.2,0,18,0c-7.2,3.2-3.6,7.7-2.1,11.9c1.9,5.3,4,10.5,6.5,16.8
		c3.2-8,6.2-14.8,8.5-21.9c0.6-1.9-1.2-4.5-2-6.9C217.5,156.9,222.4,156.9,226.9,156.9z"/>
	<path d="M329.7,156.2c0,4,0,7.1,0,9.6c-3-2.1-5.6-5-8.8-5.8c-2.1-0.5-6,1.2-7.3,3.1c-2,2.8,0.2,5.6,3.1,7.3
		c3.1,1.9,6.3,3.8,9.3,5.7c4.4,2.8,6.1,7,5.1,12.1c-0.9,4.9-4,7.9-8.9,9c-2.4,0.5-5,1-7.4,0.8c-11.5-0.8-10.9-0.6-9.9-12.8
		c0.8,1.2,1.3,1.8,1.6,2.6c2.3,5.3,7.8,7.6,13.2,5.5c4.3-1.7,4.9-7,1-10.1c-2.9-2.2-6.1-4-9.2-6c-5.4-3.6-7.2-8-5.9-13.6
		c1.1-4.6,5.1-7.6,11.4-8C321.4,155.5,325.5,156,329.7,156.2z"/>
	<path d="M392.6,192.9c-4.4,5.1-10.4,6.6-16.2,4.7c-5.6-1.8-6.8-6.3-6.8-11.4c0-8.1,0-16.2,0-24.5c-1.9-0.3-3.5-0.6-5-0.8
		c0.7,0.7,11.3-6.5,13.6-13.4c0.2,2.8,0.3,5.6,0.5,8.8c4.6,0,8.8,0,13.4,0c0,1.8,0,3.1,0,4.9c-4.5,0-8.7,0-13.4,0
		c0,9.2-0.2,17.9,0.1,26.6c0.2,4,3,6.1,7.2,5.9C387.9,193.6,389.8,193.3,392.6,192.9z"/>
	<path d="M295.6,165.9c-1.7-1.2-2.8-2.2-4.1-2.9c-5.2-2.7-8.8-0.6-8.8,5.2c0,6-0.1,12,0,18c0.1,4.9-0.4,10.3,6.9,10.9
		c-6.9,0-13.7,0-20.6,0c5.6-1.9,4.8-6.6,4.9-10.8c0-5.8-0.1-11.7,0.1-17.5c0.1-4.3,0.3-8.4-5.8-9.3c6-3.2,13.6-3.3,14.8-1.3
		c3.8-0.8,7.3-2.1,10.8-2c5.7,0.1,6.7,2.1,3.8,7C297,164,296.4,164.8,295.6,165.9z"/>
	<path d="M181,197.4c-6.3,0-12.6,0-18.8,0c5.6-2.4,5.1-7.4,5.2-12.1c0.1-5.3,0.1-10.6,0-16c0-4.4,0.5-9.2-5.5-11.1
		c4.6-0.7,9.2-1.5,14.2-2.3c0,7.4,0,14.6,0,21.9c0,3.3-0.1,6.7,0,10C176.3,191.6,175.8,195.8,181,197.4z"/>
	<path d="M353.6,155.9c0,10.9,0,21.5,0,32.1c0,3.8,0.2,7.5,5,9.1c-6.4,0-12.8,0-19.3,0c5.2-1.6,5.7-5.6,5.5-10.2
		c-0.2-6.5-0.1-13,0-19.5c0-3.8,0.3-7.7-5.8-7.9c0.3-0.4,0.5-0.8,0.8-1.3C344.3,157.5,348.8,156.7,353.6,155.9z"/>
	<path d="M176.5,140.9c-0.1,5.2-2.2,6.7-5.4,6.7c-3.1,0-5.1-1.8-5.1-4.9c0-3.3,2.2-5.5,5.4-5C173.5,138.1,175.4,140.1,176.5,140.9z"
		/>
	<path d="M347.5,148.4c-1.3-1.9-3.3-3.7-3.6-5.7c-0.5-3.4,2.3-5.5,5.2-4.8c2,0.4,4.7,3.1,4.8,4.8c0,1.9-2.6,3.9-4.1,5.8
		C349,148.5,348.3,148.4,347.5,148.4z"/>
</g>
</svg>
